<?xml version="1.0" encoding="UTF-8"?>
<svg width="47px" height="64px" viewBox="0 0 47 64" version="1.1" xmlns="http://www.w3.org/2000/svg" xmlns:xlink="http://www.w3.org/1999/xlink">
    <!-- Generator: Sketch 46.2 (44496) - http://www.bohemiancoding.com/sketch -->
    <title>paths (1)</title>
    <desc>Created with Sketch.</desc>
    <defs></defs>
    <g id="Page-1" stroke="none" stroke-width="1" fill="none" fill-rule="evenodd">
        <g id="paths-(1)" fill-rule="nonzero" fill="#000000">
            <path d="M16.7410714,20.2105263 L30.1339286,20.2105263 L36.8303571,3.36842105 L43.5267857,0 L46.875,6.73684211 L43.5267857,23.5789474 L46.875,43.7894737 L46.875,53.8947368 L23.4375,64 L0,53.8947368 L0,43.7894737 L3.34821429,23.5789474 L0,6.73684211 L3.34821429,0 L10.0446429,3.36842105 L16.7410714,20.2105263 Z M20.0892857,41.6842105 L20.7589286,44.2105263 L23.4375,45.4736842 L26.1160714,44.2105263 L26.7857143,41.6842105 L23.4375,40.4210526 L20.0892857,41.6842105 Z M36.8303571,42.1052632 L26.7857143,47.5789474 L20.0892857,47.5789474 L10.0446429,42.1052632 L20.0892857,53.0526316 L18.4151786,60.6315789 L23.4375,64 L28.4598214,60.6315789 L26.7857143,53.0526316 L36.8303571,42.1052632 Z" id="Combined-Shape"></path>
        </g>
    </g>
</svg>